<svg width="1400" height="248" fill="none" xmlns="http://www.w3.org/2000/svg"><mask id="a" maskUnits="userSpaceOnUse" x="0" y="0" width="1400" height="248"><path transform="matrix(-1 0 0 1 1400 0)" fill="url(#paint0_linear)" d="M0 0h1400v248H0z"/></mask><g mask="url(#a)"><path d="M423.49-86.184c4.625 7.088 15.159 4.376 21.914 6.643 10.799 3.764 21.218 9.548 32.049 13.681 13.733 5.242 28.237 9.966 40.151 18.322 11.457 7.99 18.712 19.09 23.063 30.954 3.993 10.731 6.058 21.821 7.334 32.833.95 8.373 2.116 12.056-2.032 18.829-13.195 21.432-15.855 46.602 3.922 67.443 15.786 16.56 46.381 25.111 69.362 23.306 14.2-1.07 27.351-5.994 39.339-11.902 17.598-8.602 33.527-19.519 50.727-28.572 5.461-2.892 10.967-5.643 16.666-8.054 5.377-2.352 12.179-3.694 17.159-6.496 7.267-3.903 9.396-17.05 7.938-24.878 1.34 3.425 21.151-2.214 25.268-2.906 11.17-1.78 22.371-3.192 33.721-4.406 21.105-2.355 42.448-4.23 63.477-7.097 5.71-.764 12.667-2.96 18.427-2.757 6.93.134 13.914 3.933 20.507-.22m-499.45-111.5c5.53 6.995 12.923 6.443 20.512 8.93 6.388 2.184 12.634 6.871 18.707 9.94 18.322 9.262 38.809 16.771 53.306 30.871 13.893 13.537 19.37 31.642 22.516 48.83 2.129 11.83 4.58 23.598.3 34.52-6.062 15.228-10.253 36.634-.002 51.824 13.291 19.425 37.303 29.202 61.989 30.904 22.682 1.551 43.566-5.264 62.417-14.475 27.896-13.67 52.886-31.15 83.175-41.29 3.456-1.17 6.771-1.712 9.123-3.95 3.021-2.812 4.342-8.308 5.603-11.843.387-1.197 1.054-8.221 2.57-8.804.758-.29 2.297 2.422 3.087 2.5 3.365.424 8.19-1.525 11.401-2.123 9.841-1.683 19.918-2.885 29.938-4.001 19.076-2.053 38.228-3.595 57.304-5.648 11.188-1.184 22.39-2.595 33.502-4.29 10.688-1.69 23.119 1.32 32.718-3.543M402.619-79.597c5.806 6.794 13.685 8.851 21.575 12.557 6.6 3.12 12.671 8.065 18.968 11.842 19.451 11.752 40.212 22.81 52.02 41.31 9.429 14.744 13.115 31.757 15.466 48.044 1.06 7.378 2.903 15.884 2.428 23.248-.617 7.99-3.75 15.548-4.219 23.735-.392 8.698-.935 20.949 2.706 29.496 3.122 7.443 13.905 15.185 21.024 19.409 9.879 5.96 20.891 8.784 32.405 10.239 27.022 3.442 52.043-3.468 74.934-13.881 30.716-13.896 58.006-32.704 90.672-43.662 3.456-1.17 8.627-1.757 11.479-3.489 2.795-1.645 4.423-5.098 5.954-7.783 1.054-1.772 3.766-11.201 6.143-12.02 1.997-.671 2.17.947 3.839 1.386 3.602.904 1.559 1.434 6.19 1.022 11.921-1.02 23.849-3.092 35.827-4.198 19.224-1.855 38.568-3.058 57.747-5.055a640.594 640.594 0 0028.8-3.564c5.447-.79 11.472-2.437 17.041-2.574 9.383-.173 17.526.036 25.962-3.936M392.321-76.404c5.891 6.253 13.215 10.589 20.687 15.122 7.369 4.477 14.057 9.757 20.919 14.779 19.775 14.391 38.209 29.108 47.639 50.301 8.629 19.468 11.13 40.527 12.822 60.911.546 7.098-.679 13.701-.922 20.722-.323 10.26.889 20.534 3.373 30.796 2.528 10.404 4.85 14.246 15.262 21.082 12.202 7.927 25.616 11.354 40.181 12.241 27.126 1.623 51.954-5.626 75.198-15.73 33.067-14.259 62.573-33.854 97.237-45.485 7.292-2.483 16.103-2.85 20.404-8.6 2.186-3.032 6.543-13.444 11.026-14.054 2.453-.307 4.68 2.429 6.805 3.233 3.428 1.161 6.229.34 10.012-.065 9.757-1.142 19.59-1.773 29.378-2.547 20.687-1.528 41.464-2.772 61.972-4.867 10.283-1.09 20.521-2.322 30.625-3.979 14.484-2.322 29.981-1.984 43.081-7.873M381.908-73.04c18.899 18.605 42.213 33.163 60.109 52.63 20.489 22.283 27.982 48.637 31.782 75.679 3.94 28.29-1.056 60.046 14.259 86.668 4.676 8.054 19.636 13.143 28.978 15.528 10.338 2.574 21.198 2.501 31.513 1.78 14.785-1.103 28.942-4.19 42.593-8.608 39.334-12.725 72.491-35.026 110.272-50.237 9.431-3.782 18.952-7.28 28.902-9.958 4.785-1.266 9.314-1.735 12.874-4.723 2.892-2.413 4.828-5.699 7.366-8.422 6.094-6.535 8.025-4.194 15.794-1.141 8.34 3.246 21.675-.287 30.705-.77 20.675-1.3 41.323-2.145 61.863-3.871 19.21-1.628 37.922-5.638 57.087-7.407 10.912-.983 20.85-3.434 30.66-7.36M371.553-69.762c23.84 22.934 51.098 45.382 66.322 73.596 10.575 19.706 14.597 41.006 17.522 62.061 4.144 30.278 4.107 60.509 20.095 89.256 8.113 14.614 35.207 15.868 50.988 14.954 14.084-.899 27.805-3.754 40.948-7.627 37.765-11.234 70.753-30.577 105.414-46.783 19.261-8.987 39.639-17.132 60.946-22.076 4.991-1.154 6.873-1.655 10.286-4.84 3.194-3.07 6.222-6.934 10.668-8.737 4.445-1.803 7.334-.466 11.501 1.683 5.399 2.819 7.755 3.28 14.024 2.938 50.937-2.663 101.667-3.56 151.165-13.454 8.408-1.64 16.194-4.441 23.891-7.525M361.197-66.481c20.684 18.872 40.768 41.756 53.941 65.102 11.441 20.294 16.696 42.265 19.948 64.084 4.663 31.381 4.593 63.119 20.355 93.033 2.771 5.259 5.965 10.514 9.654 15.452 3.733 5.079 6.385 5.935 12.915 7.494 11.334 2.764 22.341 2.889 33.632 1.761 16.507-1.574 31.917-5.269 47.052-10.638 38.86-13.688 73.8-33.845 110.812-50.414 17.822-7.894 36.144-15.281 55.594-20.179 4.407-1.12 10.399-1.261 14.318-3.116 4.459-2.03 7.218-6.745 11.689-9.002 10.91-5.557 16.631 3.652 26.861 5.347 5.297.888 12.202-.398 17.449-.475 6.738-.205 13.52-.268 20.199-.387 12.408-.286 24.816-.572 37.192-1.227 30.597-1.65 63.553-4.712 92.26-13.134 6.302-1.848 12.425-4.264 18.547-6.679M350.842-63.204c37.659 34.086 57.892 78.392 64.215 123.339 3.308 23.608 2.755 48.986 9.685 72.22 3.786 12.495 9.28 24.746 16.624 36.128 3.118 4.744 6.512 9.287 10.342 13.599 4.819 5.552 7.322 8.086 15.105 9.036 24.081 3.015 51.2-2.636 72.971-10.141 40.947-14.076 77.674-35.841 116.492-53.42 19.409-8.79 39.26-16.987 60.387-22.497 9.353-2.417 19.07-2.877 26.563-7.948 5.121-3.428 9.342-5.94 16.054-5.69 6.492.366 11.165 3.846 16.898 6.378 10.792 4.815 27.89 2.155 39.804 2.187 13.506-.041 27.012-.081 40.499-.718 31.958-1.378 65.582-5.015 95.293-14.299 6.957-2.195 13.676-4.872 20.499-7.493M340.487-59.925c26.402 23.507 43.581 57.357 50.948 88.685 4.865 20.468 6.428 41.252 8.313 61.976a943.229 943.229 0 003.193 30.229c2.482 20.463 9.32 38.839 22.587 56.843 5.357 7.252 15.557 21.477 25.316 24.909 9.657 3.377 25.138-.632 34.554-2.31 11.183-2.008 22.289-4.527 33.216-7.612 46.623-13.333 86.836-40.472 130.188-59.572 19.994-8.823 40.545-17.226 62.373-22.941 9.731-2.563 21.716-2.845 30.03-7.468 6.393-3.44 10.427-5.467 18.224-4.744 9.639.904 15.35 6.59 24.635 9.061 11.525 3.103 27.197 1.31 39.155 1.482 11.901.259 23.814.29 35.593-.104 33.685-1.024 68.62-5.355 99.699-15.418 7.554-2.458 14.974-5.34 22.291-8.277M330.029-56.702c27.603 23.808 41.574 60.956 46.577 92.873 3.074 19.378 3.386 38.894 4.501 58.261 1.394 23.74.975 49.543 13.526 71.73 6.779 12.012 15.556 23.353 26.44 33.025 4.441 3.823 9.159 7.444 14.339 10.379 6.972 4.027 9.81 4.398 17.653 3.388 16.064-2.167 31.866-6.235 47.199-10.441 48.743-13.353 90.387-40.534 135.045-61.152 21.156-9.715 42.697-18.752 65.617-25.046 11.351-3.089 24.459-3.58 35.412-7.12 6.096-1.96 10.917-6.608 18.096-6.22 10.134.587 17.87 5.146 26.96 9.153 11.775 5.232 24.543 4.204 37.22 4.768 13.101.56 26.157.978 39.195.8 37.359-.433 75.665-5.393 109.713-17.359 7.349-2.569 14.403-5.532 21.649-8.157M319.673-53.423c28.733 24.423 39.915 64.04 42.76 96.66 1.731 19.701.977 39.342 1.129 58.888.099 20.456-.981 45.782 8.175 65.302 9.732 20.537 30.312 41.228 53.534 50.928 5.38 2.223 10.292 4.308 15.783 3.66 3.52-.43 7.021-1.457 10.509-2.257 6.276-1.394 12.609-2.873 18.898-4.494 23.973-6.19 49.051-13.186 70.343-24.352 23.259-12.206 46.312-24.525 70.013-36.139 21.195-10.398 42.775-20.117 65.67-27.831 10.69-3.566 21.572-6.793 32.781-9.255 7.297-1.659 14.715-2.666 22.089-3.814 6.892-1.059 12.784-5.006 19.856-5.498 7.919-.5 18.076 3.383 24.868 6.843 9.007 4.547 15.869 7.694 25.682 8.341 13.923 1.007 27.788 2.1 41.794 2.566 42.386 1.481 84.7-3.175 123.61-15.897 10.471-3.45 20.455-7.635 30.836-11.368M309.318-50.145c32.244 26.92 39.19 71.15 39.322 106.75.144 20.598-2.139 41.048-2.624 61.538-.656 25.322-.408 52.425 18.469 74.184 15.605 17.868 40.137 35.199 66.442 36.374 11.727.516 25.514-5.351 36.498-8.522 22.83-6.577 46.079-13.982 67.087-23.895 20.135-9.45 38.981-21.36 58.776-31.347 22.359-11.289 45.366-21.874 69.263-30.449a351.823 351.823 0 0134.117-10.405c14.023-3.511 29.514-3.997 43.004-8.384 23.57-7.465 42.248 13.131 65.303 15.587a767.624 767.624 0 0036.842 3.038c47.6 2.91 94.673-2.558 137.727-18.302 8.981-3.322 17.828-7.07 26.856-10.251M298.963-46.866c34.009 28.465 37.986 74.599 35.921 111.583-1.269 21.236-4.484 42.235-6.222 63.333-.766 9.667-1.121 19.558-.306 29.382 1.029 13.458 3.671 27.44 13.835 38.597a118.894 118.894 0 0032.907 25.521c11.927 6.253 24.756 9.714 38.229 11.18 8.104.89 15.335 2.243 22.921.155 11.511-3.118 22.933-6.521 34.149-10.035 22.708-7.229 46.451-14.951 66.986-25.826 19.66-10.411 38.422-21.78 58.525-31.6 20.38-10.02 41.35-19.251 63.236-26.927 11.564-4.029 23.204-7.546 35.286-10.472 15.41-3.695 31.377-5.094 46.922-8.364 22.347-4.612 40.924 14.053 61.787 18.717 12.81 2.864 27.196 3.185 40.213 4.285 47.271 4.021 93.175-1.379 136.133-16.354 12.103-4.205 23.465-9.396 35.615-13.459M288.607-43.588c34.581 28.66 36.573 75.238 33.076 112.264-2.054 21.982-6.579 43.674-9.525 65.523-1.57 11.692-2.774 23.466-1.974 35.392.882 13.26 4.288 25.901 15.308 35.998a119.84 119.84 0 0034.489 21.926c13.97 5.723 28.355 7.919 43.318 9.257 8.746.771 18.539 2.697 26.844 1 12.159-2.414 24.083-7.185 35.633-10.986 23.159-7.688 46.664-15.891 68.239-26.434 19.942-9.789 38.364-21.695 58.307-31.485 46.849-22.825 96.096-39.422 150.741-44.875 5.01-.558 9.807-.176 14.629 1.626 4.924 1.857 9.759 3.432 14.625 5.376 10.202 4.024 19.349 9.821 29.783 13.502 12.719 4.456 28.408 5.134 41.778 6.544 50.86 5.152 98.486-.718 144.515-17.541 11.797-4.372 23.207-9.422 35.087-13.51M278.252-40.309c37.077 30.369 35.644 80.36 29.891 118.856-3.286 21.312-8.357 42.356-12.272 63.56-2.057 10.958-3.865 22.169-4.034 33.451-.139 13.526 2.097 28.109 15.217 37.59 9.108 6.479 19 12.211 29.613 16.46 20.653 8.303 42.719 9.518 64.67 10.905 6.595.421 13.203.615 19.754.895 6.345.169 11.594-1.784 17.472-3.629 25.117-7.678 49.875-16.489 73.793-26.344 22.942-9.447 43.156-22.137 65.033-33.337 20.945-10.65 42.686-20.4 65.286-28.509 12.54-4.435 25.375-8.476 38.479-11.666 17.189-4.252 34.575-5.465 52.245-7.931 5.389-.704 10.38-1.858 16.057-1.116 6.306.851 10.157 3.884 15.64 6.162 4.969 2 9.887 3.034 14.933 5.544 5.399 2.819 10.695 5.583 16.442 7.888 13.501 5.585 26.73 7.621 41.069 9.675 20.324 2.965 40.977 4.818 61.304 4.032 33.743-1.109 65.682-9.533 95.978-20.725 12.558-4.663 24.778-10.09 37.418-14.47m-119.7-98.529c4.985-1.978-31.12-27.128-34.305-28.86C896.178 9 918.001 17.236 938.469 17.699c15.233.313 30.409.711 45.412-.508 7.874-.642 20.879-1.189 25.929-7.003 5.22-6.073-2.79-13.357-7.77-17.828-14.167-12.512-31.557-22.323-47.347-33.257-14.616-10.178-47.802-31.746-40.665-50.025 3.268 1.191 50.845 9.13 48.61.996M921.082 35.562c6.499-7.135-25.299-22.438-23.568-25.835 7.77 1.178 16.102 5.476 23.691 7.962 11.911 3.782 24.264 8.156 36.851 8.437 14.065.38 28.508.615 42.424-1.077 8.27-1.015 22.89-2.912 21.23-12.728-1.1-6.695-9.32-13.04-14.68-17.365-14.221-11.602-30.442-21.481-45.558-32.166-14.102-9.898-49.785-33.176-40.131-51.024 9.253 2.101 18.487 3.606 27.947 3.944 6.081.143 22.779.783 24.665-5.343M929.682 42.584c4.552-5.497-9.447-15.34-12.051-19.805-1.495-2.571-2.779-2.332.477-2.789 3.899-.576 12.816 3.688 16.36 4.678 20.624 6.059 39.817 10.284 61.242 9.744 10.55-.24 34.9.925 37.17-10.149 1.91-9.28-11.75-19.41-18.74-25.084-12.2-9.803-25.619-18.628-38.604-27.684-12.016-8.412-24.442-17.047-34.658-27.294-4.858-4.87-23.317-27.457-10.323-29.652 3.635-.603 10.229 1.694 14.121 2.17 4.578.497 9.273.822 13.878.865 7.148.018 25.04.136 26.947-7.27M938.122 49.639c2.83-5.027-2.413-10.575-4.098-15.361-2.518-6.881 5.924-3.579 11.196-2.235 19.43 4.706 39.617 10.996 59.58 10.952 11.81-.025 45.77 1.676 39.31-14.97-5.12-13.221-22.55-24.225-34.5-32.95-8.84-6.453-17.86-12.648-26.762-19.015-12.517-8.918-25.399-17.92-36.013-28.617-5.006-5.068-23.311-26.633-9.976-30.167 2.801-.821 9.716 1.416 12.818 1.813 5.734.657 11.643 1.056 17.416 1.031 8.317-.049 27.507-.398 29.595-9.112M946.722 56.661c2.149-4.225 0-8.325.877-12.538 1.483-7.4 14.761-2.524 20.777-1.244 18.05 3.838 37.114 8.462 55.484 8.49 12.61.053 41.96.66 32.43-16.015-7.7-13.566-23.97-24.41-37.03-33.977-8.74-6.397-17.6-12.622-26.296-18.877-12.208-8.751-24.519-17.558-35.494-27.514-5.737-5.231-30.243-31.342-13.311-34.795 3.591-.744 10.564 1.407 14.25 1.77 5.689.516 11.289.748 16.858.61 10.025-.291 29.933-1.073 32.633-11.327M955.22 63.629c1.756-3.852 2.237-10.392 6.503-12.761 5.853-3.265 16.826.24 23.119 1.319 13.787 2.457 27.678 4.97 41.578 6.432 11.95 1.224 25.21 1.754 36.69-.91 10.47-2.4 11.79-7.071 5.95-15.058-16.22-21.954-44.4-38.455-67.33-55.033-11.493-8.36-23.085-16.776-33.835-26.024-6.559-5.678-12.784-11.644-17.422-18.505-3.425-4.911-9.536-17.498-.202-20.512 3.938-1.258 12.478 1.276 16.909 1.576 6.171.426 12.356.624 18.464.311 11.47-.561 30.516-2.16 33.816-13.498M963.82 70.652c6.198-16.68 26.18-10.5 42.39-7.896 18.11 2.928 36.9 5.879 55.09 5.34 6.63-.26 26.46.322 26.95-8.32.32-5.458-9.25-13.126-13.22-16.81-22.41-21.102-49.39-38.353-74.38-56.872-13.211-9.765-26.933-19.809-37.746-31.67-6.628-7.24-20.649-30.579-.17-28.468 19.953 2.059 60.836 6.593 68.296-14.445M972.26 77.705c2.717-8.606 12.429-9.89 21.554-9.264 13.556.924 27.206 4.008 40.766 5.757 14.25 1.771 28.98 3.452 43.21 2.751 6.69-.346 26.71-.248 25.69-9.36-.81-7.123-13.98-15.695-19.79-20.613-20.26-17.001-42.42-32.223-64.08-47.99-10.73-7.826-82.29-55.547-57.129-69.533 5.416-3.034 14.149-.16 20.744.262 6.493.365 13.101.56 19.525.187 16-1.03 33.96-3.924 39.75-18.128M980.86 84.728c2.128-11.271 21.86-8.046 31.1-6.768 16.29 2.292 32.46 5.58 48.89 7.245 17.11 1.687 37.56 3.429 53.09-2.313 16.5-6.149-12.88-24.826-19.67-30.162-23.62-18.475-48.75-35.545-72.93-53.39-15.96-11.728-32.738-23.903-45.905-38.1-6.834-7.352-21.78-29.318-1.485-30.473 5.845-.339 12.888 1.5 18.957 1.869 6.814.306 13.583.47 20.233-.018 17.81-1.217 33.64-5.74 40.68-20.552m-64.417 179.77c2.785-13.493 33.877-5.259 43.727-3.418 13.68 2.401 27.41 4.944 41.31 6.406 10.05 1.128 20.24 1.63 30.26 1.337 8.12-.16 26.18-.3 30.77-7.304 4.06-6.232-8.64-13.842-13.25-17.407-24.54-18.979-50.38-36.667-75.77-54.813-13.38-9.507-96.987-63.31-73.397-80.378 6.574-4.75 16.725-1.69 24.9-1.113 7.647.526 15.217.54 22.757.186 20.3-1.155 36.91-6.424 44.64-23.089M997.9 98.803c1.822-13.313 36.02-3.858 45.45-2.013 12.51 2.469 25.03 4.938 37.68 6.78 12.24 1.847 24.57 2.925 36.76 2.755 9.48-.117 20.19-.387 28.37-4.384 9.31-4.434 6.96-9.697-.57-16.02-14.95-12.59-32.35-23.224-48.65-34.437-14.27-9.869-28.53-19.737-42.67-29.777-12.07-8.554-106.576-72.625-70.904-84.294 6.694-2.222 14.881.004 22.104.533 7.39.5 14.9.6 22.34.19 9.19-.512 18.52-1.65 27.01-4.656 12.32-4.32 16.83-11.01 21.8-21.086-18.08-30.006-13.52-69.031-4.15-99.349 5.47-17.894 13.29-35.1 20.53-52.499 6.81-16.344 16.77-35.672 16.68-53.657-.06-23.837-6.05-49.722-22.46-70.14-2.37-2.933-5.1-6.999-8.77-8.641-6.1-2.614-15.46-2.896-21.99-3.404-9.7-.819-19.49-.87-29.17-1.092-24.97-.449-50.052.097-73.96 5.149-24.447 5.229-48.939 10.315-73.701 14.552-25.782 4.502-51.686 8.352-78.045 9.961-11.849.707-23.834.989-35.779.589-7.237-.302-14.879-1.879-21.879-1.7-4.984.103-9.898 1.768-14.94 1.957-6.634.261-16.234-1.326-21.973-4.682-6.561-3.803-10.448-9.904-17.414-13.107-13.886-6.263-29.225-11.206-43.587-16.556-43.833-15.986-88.575-26.253-135.297-26.926-14.019-.239-27.809 1.055-41.662 1.61M1006.5 105.827c1.74-14.649 51.15.149 60.78 2.105 16.01 3.317 32.25 6.519 48.53 7.987 15.43 1.476 39.5 3.666 51.05-5.533 12.82-10.263-19.85-26.154-29.03-32.32-28.15-18.83-182.017-113.546-153.871-135.288 7.095-5.522 17.481-2.806 26.121-2.09 8.12.663 16.36.927 24.59.594 9.08-.34 18.25-1.448 26.77-4.084 15.14-4.545 20.56-12.381 26.55-24.37m-73.05 200.052c1.21-14.7 54.99 1.534 64.61 3.717 18.66 4.174 37.44 8.175 56.52 9.873 11.54 1.001 61.95 2.861 50.3-16.493-4.99-8.222-18.73-14.288-27.21-19.607-5.42-3.416-10.88-6.974-16.3-10.39-25.74-16.58-51.36-33.333-76.25-50.972-11.05-7.768-108.516-74.738-72.035-85.733 7.385-2.2 14.755-.648 22.455.019 8.48.745 16.99 1.035 25.38.673 10.61-.327 21.27-1.562 31-4.949 6.97-2.423 13.58-5.98 18.22-11.194 4.07-4.584 4.96-9.848 7.68-14.931-21.35-34.948-8.01-78.231 7.41-110.879 9.27-19.35 20.44-37.78 30.27-56.936 4.18-8.279 8.22-16.755 11.36-25.365 3.17-9.065 6.42-18.67 4.7-28.4-2.25-12.48-6.46-24.971-13.11-36.558-5.98-10.287-14-20.043-23.99-27.707-4.82-3.677-10.38-7.29-16.13-9.595-4.76-1.888-9.18-1.591-14.31-1.685-14.02-.239-28.21-.221-42.21.137-24.29.624-49.487 1.342-73.08 5.511-22.95 4.049-45.356 10.622-68.319 14.899-24.787 4.692-49.946 8.478-75.322 10.504-13.617 1.036-27.207 1.617-40.963 1.404-14.283-.265-29.142-3.422-43.111-2.695-9.775.545-16.966-1.49-25.948-4.617-11.063-3.79-16.394-11.497-25.618-17.804-13.614-9.164-34.359-15.875-49.838-22.067-46.849-18.799-95.092-28.039-145.393-26.32-12.626.401-25.087 1.597-37.668 2.14m565.5 543.043c1.36-15.327 60.38 3.529 73.4 6.505 15.73 3.519 31.47 7.038 47.45 9.162 11.66 1.653 75.96 7.078 58.99-17.512-5.52-8.046-18.82-13.52-27.57-18.865-5.89-3.553-11.82-7.249-17.7-10.802-32.07-19.903-63.74-40.18-94.21-62.029-19.38-13.94-38.99-28.362-55.52-44.858-11.777-11.682-29.465-34.787-.97-36.643 14.83-.962 30.51 2.642 45.59 1.933 10.72-.497 21.5-1.905 31.18-5.433 7.25-2.624 13.88-6.635 18.44-12.133 4.04-4.953 4.95-10.672 7.85-16.013m-78.43 213.655c.99-14.585 57.29 3.729 68.06 6.299 15.82 3.802 31.87 7.489 47.91 10.351 19.66 3.539 42.55 7.9 61.71 3.432 13.47-3.109 16.81-13.255 7.22-23.394-7-7.323-19.05-12.353-28.06-17.724-35.05-20.472-69.52-41.802-102.58-64.593-21.3-14.633-42.41-29.751-61.52-46.593-10.03-8.856-28.256-23.461-28.303-36.502.028-10.655 15.683-11.17 25.013-10.433 12.87.903 25.55 2.29 38.44 1.915 12.1-.454 24.51-1.791 35.4-6.07 7.05-2.736 13.36-6.687 18.02-12.129 4.71-5.527 5.45-12.04 8.81-18.067m-159.567-3.43c-2.004-8.476-12.716-8.206-19.168-11.129-5.881-2.73-11.591-10.291-16.603-14.308-22.329-17.891-46.471-33.719-48.581-61.601-.801-10.05.722-20.009 2.76-29.688 1.714-7.744 5.131-8.231 12.052-13.495 17.666-13.49 30.223-32.103 25.539-53.881-4.773-22.06-27.904-41.677-50.933-51.038-17.797-7.335-37.063-7.497-55.388-4.684-20.676 3.176-40.25 9.297-60.554 13.378-6.218 1.308-12.525 2.333-18.878 3.216-4.965.7-10.404.438-14.304 2.89-7.917 5.074-14.508 15.676-15.485 24.408-3.434-1.985-13.293-.899-18.09-1.28-8.965-.656-17.904-1.766-26.888-3.017-14.339-2.055-28.64-4.791-42.94-7.528-15.764-3.064-31.368-6.157-47.158-8.766-9.234-1.505-20.037-1.519-28.782-4.165-6.298-1.902-11.24-6.231-18.582-4.714M973.967-89.86c-2.269-6.628-9.022-10.77-15.608-14.119-5.149-2.566-7.863-6.035-12.072-10.201-11.731-11.54-25.21-22.155-34.743-35.079-11.053-15.041-13.159-31.898-11.142-48.624.814-6.826 1.143-16.263 4.564-22.375 1.473-2.599 4.763-4.562 6.955-6.77 10.701-10.243 23.018-25.587 24.115-40.116 1.064-13.023-5.635-28.275-15.486-38.44-22.556-23.174-57.274-31.857-89.542-28.772-31.362 2.991-60.791 12.897-91.795 17.021-8.324 1.101-15.625.06-21.377 5.257-4.852 4.278-9.101 9.12-12.426 14.464-.636.943-1.146 3.363-2.238 3.942-1.921 1.182-.5-.507-2.196-.491-8.651.336-18.501-1.504-27.177-2.589-26.541-3.531-52.572-9.483-78.861-14.637-15.867-3.119-31.644-5.956-47.621-8.08-3.834-.561-7.854-.637-11.559-1.597-7.41-1.92-12.795-4.967-20.811-3.699M985.443-89.598c-4.198-10.843-15.741-16.418-23.286-25.213-6.545-7.781-13.584-15.245-20.013-23.197-9.701-11.843-17.507-24.414-19.814-38.684-2.461-15.292.223-30.716 3.966-45.213 1.366-5.355 3.218-8.1 6.914-12.538 5.972-7.187 10.756-14.903 14.411-23.234 2.792-6.22 6.844-14.099 6.664-21.116-.144-5.823-3.362-12.498-6.132-17.757-17.122-32.061-60.573-43.618-97.117-41.687-33.359 1.789-64.612 12.109-97.382 16.563-8.485 1.13-18.676.628-26.731 2.578-5.75 1.446-10.712 6.72-14.703 10.764-1.858 1.921-5.626 8.547-8.575 9.172-.963.179-1.219-.898-1.643-.894-.848.008-4.308-1.523-5.991-1.735-5.792-.571-11.572-1.369-17.293-2.254-29.982-4.465-59.429-11.806-89.173-17.666-13.876-2.74-27.984-5.138-42.073-6.939-12.246-1.619-24.894-6.388-37.059-4.797M996.759-89.306c-4.514-9.96-12.472-17.102-19.343-25.647-6.872-8.545-13.164-17.948-19.002-26.986-17.556-27.254-17.675-54.757-10.697-83.206 2.261-8.971 6.093-14.86 10.801-23.087 5.01-8.883 8.627-18.406 11.043-28.231 1.463-6.122 3.786-12.48 1.389-18.708-13.927-35.131-59.24-47.466-97.08-46.943-35.034.525-68.136 9.84-101.953 15.013-9.082 1.392-18.209 2.642-27.471 3.467-8.94.765-16.242-.275-23.137 4.534-4.858 3.455-8.965 7.669-13.868 10.983-5.179 3.514-7.109-.701-13.415-1.552-28.852-3.851-57.232-11.315-85.633-17.5-17.1-3.79-34.431-7.237-51.814-9.775-7.667-1.122-15.695-1.502-23.394-2.993-9.85-1.84-18.487-3.606-28.551-2.632-5.206 3.97-2.224 10.164-2.832 15.227-.432 2.931.171 3.494-3.252 3.156-6.011-.455-15.734-9.144-20.548-11.998-20.112-12.229-43.789-22.294-67.574-26.789-7.757-1.405-17.325-2.623-19.316 5.323-1.224 4.728.686 10.222 2.429 14.922 7.017 18.943 20.266 36.35 31.555 53.747 6.62 10.167 13.124 20.506 18.446 31.14 4.834 9.899 12.83 26.56 4.839 35.698-4.306 4.927-8.169.246-13.42-2.376-5.662-2.845-11.556-5.347-17.636-7.365-8.572-2.903-27.692-9.317-33.954-1.701M1008.13-89.099c-7.22-15.304-18.342-29.208-26.705-44.075-14.802-26.343-20.394-52.601-15.182-80.722 1.477-8.225 3.481-16.398 5.69-24.459 3.665-13.133 11.374-24.768 14.525-38.18 1.831-7.916 5.693-19.885 3.516-28.105-1.652-6.292-9.963-13.744-14.949-18.215-18.092-16.055-43.199-21.504-67.532-22.897-40.959-2.346-80.355 7.766-119.645 14.184-9.943 1.627-20.092 3.142-30.259 4.061-8.677.791-20.088-.609-28.304 1.371-6.231 1.536-12.24 7.53-17.349 10.731-1.921 1.183-5.295 3.687-7.664 3.453-3.057-.256-4.204-3.342-6.522-4.485-4.063-2.093-11.635-2.108-16.246-2.974a517.738 517.738 0 01-18.255-3.95c-21.434-4.858-42.668-10.428-64.115-15.059-15.533-3.407-31.252-6.329-46.966-8.427-17.499-2.366-35.427-5.552-52.858-4.48m520.3 262.49c-9-17.674-18.85-35.113-26.072-53.343-9.345-23.61-10.899-47.32-6.68-71.055 4.657-25.842 16.572-49.962 19.922-75.934 1.04-7.994 3.87-21.346-.14-29.15-3.52-6.843-13.978-13.821-20.834-18.019-15.56-9.401-33.958-12.725-52.106-13.92-41.884-2.849-82.589 6.082-122.798 12.821-19.944 3.34-40.08 6.34-60.523 7.298-5.626.223-11.99-.542-17.437.247-3.359.401-5.948 2.158-8.949 3.692-6.496 3.385-15.769 10.887-23.304 5.615-4.583-3.196-6.445-3.974-12.404-5.339-5.49-1.228-11.083-2.511-16.618-3.88-17.761-4.267-35.277-9.105-52.979-13.457-32.112-7.97-64.117-13.184-96.784-16.999-9.26-1.051-18.482-.908-27.686-.169M1030.98-88.63c-21.29-40.659-32.486-82.748-23.52-125.593 5.43-26.36 16.64-51.923 18.76-78.792.51-6.995.54-14.126-.06-21.139-.33-4.514.06-12.161-2.57-16.171-4.68-7.003-18.04-13.214-26.106-16.663-17.213-7.369-37.236-9.114-55.726-8.971-42.914.343-84.422 9.424-126.05 15.977-20.413 3.202-40.96 5.979-61.858 6.571-5.992.141-12.664-.791-18.477-.083-3.841.49-7.291 2.483-10.761 3.879-4.664 1.918-10.735 5.299-16.233 5.123-6.184-.198-7.561-4.816-12.023-7.36-4.519-2.459-12.476-3.152-17.587-4.525-6.414-1.73-12.726-3.404-19.083-5.22-18.087-5.032-36.059-10.234-54.289-14.639-28.933-7.061-58.581-11.814-88.225-13.868-9.388-.651-18.624-.281-27.873.317M1042.3-88.337c-21.28-39.012-25.31-84.236-15.33-124.419 5.25-21.302 13.01-42.172 16.89-63.745 2.41-13.348 2.78-27.217 1.18-40.869-.72-6.017-1.84-12.257-3.46-18.18-1.68-5.837-3.45-7.384-9.39-10.851-21.38-12.218-46.576-15.251-70.871-15.451-43.826-.387-87.641 11.073-129.97 17.832-21.857 3.471-43.85 6.517-66.296 7.323-9.66.374-21.456-1.704-30.461.198-9.648 2.022-21.138 10.312-31.441 4.356-6.663-3.859-7.239-6.752-15.002-8.981a713.215 713.215 0 01-19.686-5.783c-14.78-4.522-29.445-9.216-44.354-13.339-36.689-10.341-74.909-17.998-112.921-19.093-9.197-.312-18.24.397-27.373.823-7.398 8.053-19.674 4.19-29.176-.041-22.522-9.905-43.565-21.586-67.038-29.663-6.96-2.379-27.356-11.48-33.874-4.941-4.267 4.244 1.262 13.115 3.429 17.811 4.987 10.921 11.112 21.405 17.398 31.859 12.231 20.372 25.599 40.307 37.67 60.708 5.31 8.986 10.402 18.087 14.634 27.424 4.128 9.281 12.52 28.268 1.487 35.048-6.913 4.212-13.004-1.328-19.719-4.278-5.938-2.643-12.051-5.03-18.349-6.932-16.643-5.3-37.897-9.591-50.546 2.289M1053.77-88.075c-15.07-27.193-18.84-61.139-15.23-90.012 2.28-18.575 7.81-36.555 13.39-54.393 7.46-23.964 15.5-46.912 14.11-72.527-.63-12.183-2.79-24.38-7.04-36.189-1.96-5.408-3.18-10.057-8.62-13.018-4.93-2.682-10.91-4.643-16.43-6.24-15.52-4.685-32.13-5.866-48.094-6.343-47.736-1.459-94.931 11.681-140.998 18.986-22.076 3.587-44.492 6.637-67.112 7.7-11.31.531-22.857.582-34.25-.221-10.076-.674-18.827 4.181-29.032 3.907-10.102-.219-11.595-4.665-19.509-9.791-5.007-3.193-12.925-4.568-18.8-6.474-12.116-3.893-24.116-7.958-36.186-11.71-45.722-14.434-94.009-25.69-142.03-24.021-6.473.23-12.96.689-19.332.975-9.507 11.596-34.51-3.997-44.293-8.85-17.809-8.983-35.527-17.683-54.706-24.011-8.058-2.624-27.767-11.703-35.818-7.053-6.303 3.724-.395 12.448 2.08 17.312 4.861 9.445 10.261 18.714 15.822 27.953 12.776 21.02 26.369 41.663 39.306 62.653 6.786 10.961 13.354 22.038 18.945 33.521 4.982 10.097 13.087 25.762 8.455 36.375-6.215 14.207-30.068-2.05-40.97-5.869-19.737-6.749-42.982-11.42-58.335 2.39M1065.15-87.869c-16.97-29.164-15.97-66.024-9.21-96.233 3.92-17.681 10.51-34.733 16.68-51.781 8.01-22.492 16.4-44.079 14.83-68.386-.84-13.118-3.54-26.192-8.64-38.816-2.09-5.01-4.41-9.904-7.48-14.506-3.65-5.62-7.25-6.524-14.34-8.504-18.15-4.945-37.81-5.558-56.39-5.697-50.229-.47-97.99 13.3-146.613 20.856-23.187 3.569-46.554 6.571-70.24 7.757-11.895.566-23.763.676-35.682-.179s-22.456 3.732-34.515 1.628c-10.069-1.724-12.716-8.206-20.978-12.817-6.413-3.606-15.371-5.312-22.478-7.889-13.907-4.984-27.813-9.969-41.862-14.328-42.704-13.496-87.493-22.029-132.122-20.391-7.483.268-15.036.85-22.576 1.204M1087.94-87.314c-19.59-32.35-10.85-73.204 1.43-104.515 7.26-18.451 16.63-36.097 25.03-54.16 8.28-17.892 19.15-38.593 16.7-58.686-2.92-23.754-12.18-48.955-32.39-66.866-4.48-3.964-7.92-6.774-14.07-7.654-5.62-.829-11.39-.803-17.05-.949a775.308 775.308 0 00-32.54-.465c-28.3.321-56.134 1.83-83.118 7.906-20.549 4.652-41.187 9.021-62.108 12.767-26.862 4.853-54.256 8.83-81.886 10.452-12.434.74-24.945.971-37.359.433-6.39-.31-12.824-.762-19.349-1.497-7.051-.786-13.327.608-20.256.473-7.354-.13-17.794-2.761-24.033-6.623-8.955-5.458-13.799-12.43-23.679-16.515-16.712-6.862-33.308-13.896-50.38-20.016-45.649-16.623-93.213-24.789-141.536-22.464-9.396.4-18.715 1.311-28.054 1.625M1110.79-86.845c-21.08-34.097-7.71-76.188 8.5-107.706 10.14-19.813 22.53-38.397 33.96-57.625 5.22-8.771 10.39-17.684 14.52-26.928 4.3-9.502 8.9-20.483 7.92-31.101-.93-10.475-6.67-22.156-12.28-31.537-6.86-11.472-16.22-21.954-27.92-30.198-9.52-6.702-23.48-14.528-35.52-16.035-12.67-1.616-27.01.081-39.64.482-25.72.666-51.29 2.353-76.613 5.345-24.42 2.898-47.829 10.333-71.769 15.017-24.1 4.713-48.572 8.521-73.319 10.655-17.135 1.467-34.335 2.195-51.617 1.589-15.644-.536-31.139-2.75-46.771-3.514-9.665-.45-18.653-4.401-27.172-8.214-9.707-4.342-15.397-13.182-23.812-18.815-13.216-8.713-30.404-14.662-45.183-21.059-48.677-21.083-99.232-30.642-152.276-28.188-13.064.633-26.006 1.919-39.056 2.324m669.368 345.8c-23.03-36.21-5.04-81.184 13.69-113.323 11.11-19.168 24.16-37.275 36.56-55.859 5.85-8.663 11.22-17.464 15.98-26.601 5.42-10.535 11.3-23.403 8.23-35.507-2.9-11.31-10.7-23.057-18.59-32.388-17.02-19.929-42.98-32.644-69.75-39.583-11.22-2.936-26.18-.523-37.7-.103-25.47.919-50.82 2.49-75.971 5.225-26.218 2.858-50.724 10.047-76.328 15.116-24.479 4.859-49.317 8.585-74.532 10.581-14.098 1.126-28.273 1.741-42.453 1.532-16.563-.215-32.501-3.022-49.043-4.515-8.586-.801-16.737.042-24.877-3.917-7.935-3.847-16.615-7.63-23.277-13.365-10.089-8.77-18.76-15.48-31.169-21.644-9.213-4.659-18.38-9.177-27.824-13.493-19.606-9.023-39.965-16.931-61.167-22.132-31.759-7.66-64.306-8.948-96.38-7.399-13.385.693-26.706 2.124-40.283 2.478m73.076 125.813c-5.845.338 17.686 33.305 20.516 36.603-6.752-6.017-13.503-12.035-20.865-17.564-11.329-8.389-28.331-12.948-41.814-17.936-13.952-5.127-28.327-10.249-43.096-13.124-7.07-1.383-20.536-3.9-23.727 3.745-3.578 8.841 7.836 23.14 12.653 30.567 8.288 12.482 17.334 24.672 25.345 37.354 9.076 14.435 22.032 36.022 12.168 51.058-4.185-2.745-42.187-25.292-46.234-16.588m99.904-103.131c-8.319 1.924 12.634 29.971 11.497 30.408-12.441-6.533-21.218-17.873-34.674-23.316-16.975-6.889-34.169-13.661-52.051-18.581-10.325-2.802-34.756-9.876-35 5.469-.082 6.99 4.606 14.817 8.114 21.063 9.505 17.13 22.317 32.893 32.522 49.818 4.643 7.685 9.126 15.4 11.991 23.641 2.223 6.486 4.336 13.967 2.321 20.492-1.79 5.359-2.297 5.903-7.177 4.187-8.25-2.963-15.509-8.436-24.023-11.425-4.411-1.579-21.438-7.557-24.062-2.419m105.231-108.323c-5.184 2.691.085 14.234 1.604 18.226.372.906 2.771 5.259 1.987 6.005-1.787 1.608-10.888-5.922-12.313-6.932-8.916-6.139-17.703-12.677-28.007-16.758-8.488-3.444-16.988-6.661-25.662-9.62-11.166-3.846-44.826-18.051-48.892-1.619-2.261 8.971 4.833 20.1 9.566 28.068 6.568 11.076 13.894 21.862 21.059 32.677 6.337 9.545 12.617 19.175 17.818 29.156 2.815 5.401 5.206 10.805 6.839 16.501 1.512 5.044 5.354 19.328-1.932 22.635-4.458 2.03-21.096-8.896-27.061-11.085-7.107-2.576-25.63-9.251-30.876-2.724m105.513-122.475c-3.94 3.133-3.629 7.875-6.528 11.34-5.914 7.102-25.843-8.311-31.698-11.496-12.222-6.648-24.176-12.447-37.422-16.955-9.759-3.432-25.783-10.272-36.139-6.994-10.895 3.454-2.425 21.077.826 28.121 8.578 18.502 20.876 35.861 31.947 53.374 6.311 10 12.726 20.055 17.9 30.491 4.848 9.672 14.915 29.922 4.286 37.976-5.09 3.798-9.979-1.441-15.449-3.947-5.778-2.674-11.627-5.035-17.707-7.052-9.772-3.205-29.825-9.07-36.883-.481m121.659-123.307c-3.182 2.842-6.172 7.899-10.855 9.221-4.741 1.408-10.082-1.497-14.261-3.419-11.19-5.265-21.73-11.702-32.862-17.054-10.355-5.046-56.206-27.406-62.716-13.594-3.789 7.906 5.986 24.01 9.795 31.476 10.209 19.623 23.128 38.141 34.75 57.126 6.062 9.746 12.065 19.578 16.829 29.791 4.584 9.646 13.31 28.345 2.913 36.057-5.366 3.999-10.371-1.069-16.06-3.459-6.465-2.696-12.988-5.306-19.697-7.431-11.808-3.726-31.899-8.909-40.5.718m127.456-128.362c-5.952 5.908-12.69 7.988-21.833 4.891-19.853-6.577-37.96-18.654-57.266-26.459-11.595-4.665-52.543-22.013-45.907.826 3.145 10.739 8.743 21.171 14.47 31.204 10.492 18.371 22.34 36.189 33.43 54.298 6.978 11.3 14.047 22.883 19.291 34.882 3.385 7.469 14.652 36.345-3.022 36.112-4.707-.098-11.774-5.232-16.275-7.094-5.893-2.502-11.858-4.691-18.054-6.537-13.798-4.105-33.107-8.159-43.282 2.136M473.4-396.376c-9.104 12.871-42.091-9.41-51.495-14.408-13.308-7.122-27.008-13.87-41.313-19.306-5.438-2.137-10.946-3.961-16.468-5.557-7.603-2.259-24.359-9.263-31.671-5.502-9.991 5.236 11.457 32.966 15.921 40.085 14.592 23.531 30.161 46.656 44.753 70.188 7.229 11.554 14.239 23.223 20.331 35.213 5.912 11.424 14.012 26.265 11.6 38.789-3.727 18.844-30.263 1.362-42.045-2.819-22.478-7.888-46.847-12.349-64.354 2.986m149.533-148.599c-9.001 12.927-45.473-12.305-55.436-17.724-12.017-6.537-24.093-12.988-36.862-18.41-12.667-5.365-25.778-9.448-39.404-11.935-8.387-1.513-21.068-4.776-18.213 6.392 2.03 8.022 9.12 16.451 13.79 23.681a1309.473 1309.473 0 0013.342 20.39c16.665 25.246 33.709 50.346 49.179 76.114 6.773 11.189 13.167 22.522 18.585 34.263 4.423 9.676 14.343 29.728 3.932 37.667-9.742 7.365-28.895-5.868-39.271-9.635-11.621-4.211-23.923-7.619-36.279-8.243-15.208-.768-23.772 3.602-33.99 11.88m155.477-153.455c-6.205 9.405-27.035-3.215-34.078-6.928-11.15-5.948-22.23-12.21-33.323-18.243-17.05-9.275-34.538-18.318-53.537-24.079-9.316-2.84-22.588-6.893-32.37-5.296-11.286 1.952.866 17.239 4.086 22.039 6.838 10.051 13.734 20.016 20.675 30.124 14.96 21.738 29.964 43.618 44.05 65.819 9.179 14.491 18.139 29.097 25.802 44.169 5.764 11.226 12.446 24.007 12.591 36.28.089 8.608-4.835 15.075-15.957 13.247-10.698-1.833-23.357-10.125-33.848-13.721-10.96-3.734-22.498-6.61-34.064-7.155-16.743-.782-25.154 4.609-36.464 13.466m161.229-158.652c-7.679 13.88-59.106-22.066-68.498-27.292-22.57-12.746-47.092-26.554-73.234-31.51-7.333-1.409-24.882-4.74-23.291 5.388 1.105 7.519 8.6 15.348 13.367 21.81 7.262 10.048 14.684 20.065 21.888 30.198 15.589 21.846 30.902 43.894 45.398 66.319 9.045 14.065 17.813 28.332 25.443 43.035 6.253 11.961 13.274 25.278 14.388 38.195 2.622 30.036-37.292 5.746-52.779.605-11.794-3.953-24.11-7.134-36.581-7.586-7.823-.268-15.826.772-22.719 3.706-6.514 2.788-9.858 7.536-15.166 11.45m166.576-163.248c-7.711 13.511-53.373-19.534-64.439-26.023-16.132-9.595-32.701-18.959-49.99-26.839-14.502-6.599-35.444-16.348-51.997-13.04-13.123 2.594-3.113 14.604 1.89 21.547 8.533 11.911 17.983 23.501 26.734 35.296 18.297 24.492 35.939 49.331 52.488 74.748 16.107 24.825 35.037 52.123 41.328 80.051 1.888 8.649 2.026 20.098-10.761 20.529-12.787.432-25.13-8.744-36.738-13.182-14.407-5.492-29.875-10.036-45.371-10.374-8.568-.205-17.316.9-24.614 4.434-6.643 3.187-10.276 8.364-15.86 12.479m172.078-168.698c-7.364 12.997-54.406-20.916-64.388-26.932-16.016-9.767-32.103-19.221-49.044-27.615-14.669-7.393-30.758-14.971-47.338-17.658-8.502-1.342-23.646-1.371-19.801 9.163 5.589 15.234 21.729 30.227 32.141 43.513 23.039 29.533 45.249 59.671 65.449 90.709 14.259 21.944 28.729 44.823 37.316 68.723 2.788 7.731 7.12 18.999 2.465 26.316-6.868 10.804-25.061 1.143-34.196-3.006-19.151-8.658-40.724-16.64-62.084-17.236-8.933-.287-17.9.933-25.68 4.557-7.459 3.565-11.349 9.539-17.749 14.031 5.165 13.363-40.447 14.583-51.417 15.651-14.592 1.443-29.23 2.744-43.746 4.698-19.905 2.657-111.46 18.284-70.673 43.987 9.455 5.964 22.427 6.923 33.478 9.065l31.882 6.437c23.758 4.95 47.33 10.384 70.773 16.218 28.554 7.206 57.128 15.01 84.723 25.095 12.5 4.572 68.693 23.88 48.905 41.141-11.986 10.482-33.863 13.356-49.287 19.154-9.476 3.64-18.625 8.044-26.227 14.11-6.6 5.204-12.007 11.76-14.087 19.423-2.112 7.294.303 14.119-.274 21.426m136.997-181.213c-3.76 3.7 39.401 15.686 43.485 16.5a272.656 272.656 0 00-27.242-1.451c-7.251-.074-14.573.164-21.747.6-7.919.5-14.523 3.005-21.712 5.544-9.404 3.327-18.925 6.825-27.798 11.028-8.217 3.855-25.639 10.325-24.619 20.26 1.064 10.076 22.569 14.621 31.166 17.07 12.874 3.602 25.935 6.719 38.924 10.15 14.088 3.676 28.412 7.833 41.104 14.619 7.703 4.19 16.806 9.845 19.42 17.833.583 1.841 1.792 7.541-.04 9.007-.552.403-2.806-.002-3.609.147-7.503 1.548-15.248 1.79-22.629 3.99-4.58 1.378-17.055 4.676-16.828 9.959m-18.662-139.247c-3.171 6.365 32.831 16.685 32.599 17.028-.849 1.883-19.922.185-22.362.265-14.47.22-29.993.336-43.233 4.977-11.563 4.029-62.324 19.333-44.901 35.962 9.389 8.977 27.568 12.416 39.87 15.824 12.508 3.521 25.1 6.5 37.652 10.162 16.771 4.902 38.301 10.867 50.024 23.458 3.343 3.577 8.127 12.511 3.551 16.588-1.452 1.321-4.246 1.091-6.539 1.368-5.549.734-43.575 8.191-38.399 16.752m-19.003-146.234c-1.836 7.092 15.546 11.505 19.871 15.499 2.368 2.109 2.992 1.393-.201 2.588-2.814 1.049-8.182.474-11.207.587-14.657.705-29.326 1.637-43.765 4.101-12.834 2.165-26.704 8.574-37.435 14.697-5.969 3.437-14.514 8.403-11.348 15.988 2.334 5.491 9.652 9.003 15.328 11.621 17.597 8.047 37.214 12.268 55.93 17.407 14.338 3.93 28.779 7.915 42.428 13.698 8.943 3.809 19.414 8.684 25.079 16.104 3.497 4.598 5.371 13.474-.585 16.683-2.403 1.273-7.695 1.209-10.585 1.747-4.554.923-8.961 2.044-13.278 3.448-5.235 1.725-24.572 8.326-21.379 15.456m-19.639-153.615c-.158 4.605 4.752 8.565 8.282 11.658 1.059.927 4.891 3.364 4.755 4.814-.556 4.153-22.147 3.9-25.346 4.271-15.717 1.652-32.326 3.17-46.671 8.617-8.994 3.55-32.564 11.015-30.209 21.676 2.535 11.228 24.475 17.417 34.966 21.012 13.977 4.672 28.168 8.404 42.448 12.419 14.588 4.183 93.347 25.214 69.773 46.629-4.865 4.507-17.858 4.826-24.931 7.194-7.83 2.658-25.94 9.106-23.841 18.69M372.411-237.32c-.023 5.03 4.226 8.513 5.076 13.08 1.171 6.382-9.047 6.335-14.494 7.124-10.996 1.523-21.876 2.875-32.738 4.823-9.898 1.768-19.867 3.85-28.977 7.572-7.375 3.023-20.281 7.377-22.933 14.846-4.705 12.801 32.703 23.533 42.27 26.627 13.361 4.336 26.806 8.132 40.251 11.927 17.972 5.203 91.327 22.591 73.749 46.564-5.111 6.952-19.041 6.996-27.585 10.088-9.244 3.297-27.451 10.512-25.167 21.487m-20.296-168.043c.19 4.09 2.484 10.262.098 14.007-3.311 5.116-14.358 5.674-20.242 6.695-14.863 2.468-97.086 16.957-77.127 34.614 13.503 12.035 36.959 17.641 54.552 22.99 11.031 3.42 22.133 6.527 33.119 9.806 15.101 4.462 101.81 27.238 72.487 50.099-6.761 5.234-19.677 6.064-28.292 9.469-10.291 4.017-26.52 11.84-24.449 23.753m-20.932-175.424c1.618 16.123-14.009 18.059-28.943 20.84-14.131 2.632-93.06 17.858-75.739 34.432 7.784 7.4 23.425 11.686 33.595 15.342 9.393 3.351 19.018 6.358 28.598 9.224 11.557 3.472 23.172 6.859 34.73 10.331 15.776 4.712 98.497 25.904 76.104 48.9-7.431 7.684-20.815 8.377-31.107 12.394-12.463 4.946-28.557 13.193-26.925 27.214m-21.055-182.526c2.697 17.647-29.217 19.166-42.5 21.79-11.999 2.385-23.85 4.967-35.387 8.541-10.78 3.283-52.111 16.681-28.435 28.621 32.477 16.376 70.683 24.259 105.664 34.844 18.793 5.65 104.794 29.682 67.199 52.734-9.111 5.597-22.625 6.688-32.692 11.413-12.515 5.856-24.121 14.318-22.841 28.03m-21.794-189.964c4.437 17.773-47.682 20.73-59.534 23.313-10.829 2.317-21.422 5.115-31.688 8.677-9.726 3.386-23.332 7.945-28.829 16.094-5.498 8.149 8.416 12.082 15.363 14.688 32.404 12.115 66.172 20.75 99.393 30.613 15.41 4.63 100.546 26.198 84.157 48.825-7.702 10.584-26.296 12.547-38.657 17.55-15.945 6.57-29.953 16.303-29.016 33.228M318.409-256.96c3.593 12.155-21.629 15.203-30.827 16.766-12.249 2.131-24.691 3.924-36.747 6.394-10.451 2.172-20.665 4.824-30.609 8.326-11.185 3.883-46.339 18.53-23.477 28.972 19.458 8.826 42.382 13.556 63.064 19.529 13.753 3.963 27.725 7.811 41.478 11.775 16.361 4.677 129.504 34.679 94.85 58.158-10.3 6.943-22.902 8.765-34.665 13.506-18.22 7.444-32.222 18.001-31.46 37.06m-22.393-204.477c3.817 12.863-27.622 15.344-37.288 16.769-12.821 1.938-25.789 3.678-38.43 6.183-11.678 2.325-80.076 20.464-58.979 35.809 8.64 6.341 24.135 8.555 34.563 11.413 9.432 2.668 18.819 5.195 28.309 7.777 15.744 4.343 31.443 8.543 47.232 13.028 14.749 4.153 138.622 36.356 108.72 60.075-10.654 8.509-25.594 10.467-38.494 15.644-8.294 3.345-16.364 7.398-22.829 13.027-9.473 8.214-10.835 16.268-10.696 27.717m-22.952-211.348c4.344 12.916-30.724 14.947-40.654 16.347-15.582 2.077-31.119 4.296-46.535 7.167-12.846 2.393-25.424 5.635-37.039 10.573-7.491 3.196-29.026 13.056-21.996 23.447 5.081 7.454 23.03 9.361 31.698 11.496 27.572 6.79 55.086 13.665 82.516 21.081 17.882 4.919 147.233 38.577 122.173 62.819-9.873 9.639-27.105 11.874-40.313 16.884-8.339 3.203-16.499 6.972-23.259 12.206-5.424 4.085-10.109 9.158-12.625 15.177-2.458 5.932-1.236 11.405-1.222 17.627m-23.428-218.759c4.787 13.509-38.584 15.361-48.077 16.53-16.533 2.029-33.053 3.83-49.226 6.993-14.247 2.803-28.475 6.203-41.151 12.089-8.057 3.826-25.958 14.96-14.663 24.856 7.663 6.747 24.54 7.954 34.627 10.275 31.772 7.433 63.415 15.264 94.871 23.58 24.104 6.311 48.214 13.445 71.559 21.922 13.541 4.903 70.4 25.512 42.906 42.333-12.401 7.56-27.393 10.427-41.096 15.754-8.018 3.143-15.753 6.909-22.34 11.886-5.976 4.488-11.067 10.16-13.519 16.917-2.324 6.358-.864 12.311-.921 18.847m-23.756-225.973c5.235 14.925-75.849 18.777-89.357 20.693-14.311 2.065-28.544 4.641-42.214 8.462-11.306 3.231-25.528 7.455-32.131 16.409-9.483 13.016 9.027 19.919 20.842 22.593 38.212 8.708 76.637 16.476 114.565 26.437 19.668 5.187 149.533 37.249 129.071 62.585-5.13 6.355-17.689 10.194-26.015 13.17-7.349 2.568-15.128 4.317-22.387 7.17-8.718 3.348-17.051 7.375-24.19 12.754-6.426 4.947-11.704 11.105-14.137 18.458-2.189 6.783-.332 13.187-.678 20.151" stroke="#718096" stroke-miterlimit="10"/></g><defs><linearGradient id="paint0_linear" x1="700" y1="0" x2="700" y2="248" gradientUnits="userSpaceOnUse"><stop stop-color="#718096" stop-opacity="0"/><stop offset="1" stop-color="#718096"/></linearGradient></defs></svg>